<?xml version="1.0" encoding="UTF-8"?>
<svg fill="none" viewBox="0 0 50 50" xmlns="http://www.w3.org/2000/svg">
<path d="m44.19 40.946c2.5642-3.0852 4.3476-6.7426 5.1994-10.663s0.7469-7.988-0.3059-11.859-3.0224-7.4316-5.7423-10.381c-2.7199-2.9489-6.11-5.1993-9.8836-6.5609-3.7735-1.3616-7.8195-1.7943-11.796-1.2615-3.9761 0.5328-7.7655 2.0154-11.048 4.3224-3.2819 2.307-5.96 5.3706-7.8076 8.9315-1.8476 3.5609-2.8103 7.5145-2.8068 11.526 0.0013484 5.8318 2.0565 11.477 5.8047 15.945l-0.03571 0.0304c0.12499 0.1499 0.26783 0.2785 0.39639 0.4267 0.16069 0.1839 0.33389 0.3571 0.49994 0.5357 0.49995 0.5428 1.0142 1.0641 1.5534 1.5534 0.16427 0.15 0.33389 0.2892 0.49995 0.4321 0.57136 0.4928 1.1588 0.9606 1.7677 1.3962 0.0786 0.0536 0.15 0.1232 0.2285 0.1786v-0.0214c4.1819 2.9428 9.1707 4.5222 14.284 4.5222 5.1136 0 10.102-1.5794 14.284-4.5222v0.0214c0.0786-0.0554 0.1482-0.125 0.2286-0.1786 0.6071-0.4374 1.1963-0.9034 1.7676-1.3962 0.1661-0.1429 0.3357-0.2839 0.5-0.4321 0.5392-0.4911 1.0535-1.0106 1.5534-1.5534 0.1661-0.1786 0.3375-0.3518 0.5-0.5357 0.1267-0.1482 0.2714-0.2768 0.3963-0.4285l-0.0392-0.0286zm-19.193-30.229c1.5891 0 3.1426 0.4712 4.4639 1.3541s2.3512 2.1377 2.9593 3.6059 0.7673 3.0838 0.4572 4.6424c-0.31 1.5586-1.0752 2.9902-2.1989 4.1139s-2.5554 1.889-4.114 2.199-3.1742 0.1509-4.6424-0.4572c-1.4681-0.6082-2.723-1.638-3.6059-2.9593-0.8829-1.3214-1.3541-2.8748-1.3541-4.464 0-2.1309 0.8465-4.1746 2.3533-5.6815 1.5069-1.5068 3.5506-2.3533 5.6816-2.3533zm-14.272 30.229c0.0309-2.3444 0.9837-4.5824 2.6521-6.2298s3.9183-2.5716 6.263-2.5728h10.713c2.3447 0.0012 4.5946 0.9254 6.263 2.5728s2.6212 3.8854 2.6522 6.2298c-3.916 3.5288-9.0004 5.4817-14.272 5.4817-5.2714 0-10.356-1.9529-14.272-5.4817z" fill="#D4D5DA"/>
</svg>
