<?xml version="1.0" encoding="UTF-8"?>
<svg fill="none" viewBox="0 0 50 50" xmlns="http://www.w3.org/2000/svg">
<mask id="a" x="0" y="0" width="50" height="50" style="mask-type:alpha" maskUnits="userSpaceOnUse">
<circle cx="25" cy="25" r="25" fill="#fff"/>
</mask>
<g mask="url(#a)">
<path d="m39.685 36.518c0.3052-0.2263 0.6262-0.4307 0.9604-0.6115 0.3457-0.276 0.6639-0.585 0.9501-0.9224 0.5767-0.6749 1.0219-1.4518 1.3128-2.2905 0.2933-0.8198 0.3729-1.7008 0.2314-2.56-0.2487-1.3197-1.5477-2.0452-1.0364-3.5065 0.3973-1.0986-0.5389-1.6618-0.8084-2.6222-0.3075-1.0779 0.456-2.0728 0.3455-3.1576-0.076-0.7635-0.5977-1.4027-1.1504-1.9347-0.4539-0.3772-0.8355-0.8337-1.1263-1.3473-0.4215-0.8948-0.1382-1.9382-0.0864-2.9262 0.0652-1.4041-0.3585-2.7874-1.1988-3.9142-0.706-0.86031-1.528-1.6184-2.4425-2.2525-2.6947-2.0728-5.3514-3.1853-8.7819-3.2371-2.0356-0.07603-4.0736 0.05127-6.0839 0.38002-2.7097 0.48427-5.2164 1.7569-7.2066 3.6586-1.0364 0.95004-2.0348 2.0521-2.4183 3.4547-0.3144 1.1539 0.1969 2.4183-0.0553 3.4928-0.2522 1.0744-1.4717 1.1193-2.1696 1.8793-0.69786 0.7601-0.80495 2.1731-0.42148 3.0437 0.29711 0.6909 1.1504 0.8879 1.3404 1.5408l-0.0691 0.0587c-1.0779 0.9121-2.7327 1.7412-2.5703 3.3477 0.12437 1.2264 1.1573 1.7999 1.5201 2.8502 0.36275 1.0502-0.42494 1.2506-0.96733 1.9657-0.90169 1.1781-0.66332 2.7984 0.08637 4.0006 0.43184 0.691 1.679 2.0349 2.5047 1.0572 0.3461 0.6256 0.8529 1.1476 1.4682 1.512 0.6152 0.3643 1.3164 0.558 2.0315 0.5608 0.0483-0.6909-0.501-1.4648-0.5701-2.1972 0.805 1.6583 3.4548 2.4425 5.0923 2.6912-0.0311-0.2992-0.1154-0.5905-0.2487-0.8602 1.3819 0.691 2.363 2.5151 4.0939 1.5616 0.4023-0.2245 0.7911-0.4726 1.1642-0.7428 0.881 1.1401 2.2352 1.4993 4.011 0.3455 0.4353-0.2833 2.3078-2.4184 2.7983-2.3596 0.4111 0.0414 0.8326 1.2299 1.2748 1.4993 1.2783 0.7843 5.3549-0.6495 5.1822-2.7396 0.2902 1.0813-0.2591 2.1627-0.3282 2.3803 0.6625-0.4639 1.278-0.9916 1.8379-1.5753 0.5547-0.6317 0.9839-1.3633 1.2644-2.1558 0.3697 0.722 0.4042 1.8068 0.2695 2.6325z" fill="#FF9C83"/>
<path d="m39.81 36.635c0.2211-0.2799 0.6702-0.4042 0.9569-0.6115 0.6753-0.5226 1.2411-1.1729 1.6652-1.914 0.7739-1.2782 1.2817-3.0056 0.7497-4.4704-0.2245-0.6115-0.6909-1.1159-0.8982-1.7274-0.266-0.7566 0.2176-1.3819 0.0656-2.1177-0.1105-0.5493-0.494-0.9639-0.7255-1.4579-0.4871-1.0365 0.0933-1.9312 0.1969-2.9573 0.1728-1.7723-1.4129-2.37-2.2006-3.6759-0.5632-0.9397-0.2246-2.0452-0.1831-3.0643 0.0376-0.8037-0.0797-1.6071-0.3455-2.3665-0.57-1.6065-1.7688-2.712-3.0886-3.7312-1.241-0.99644-2.6097-1.8225-4.0697-2.4563-3.2232-1.3301-7.02-1.2334-10.416-0.75659-3.3065 0.45955-6.364 2.0126-8.6853 4.4117-1.064 1.0883-1.9899 2.4184-1.9588 3.9972 0.0173 0.8913 0.4042 2.1108-0.1762 2.8882-0.3904 0.5182-1.0952 0.6909-1.5926 1.0813-0.93278 0.7255-1.2126 2.1972-0.83259 3.2889 0.1831 0.5424 0.58731 0.8084 0.99151 1.1815 0.07601 0.0726 0.3973 0.3455 0.40075 0.4422 0.00346 0.0968-0.44911 0.3455-0.54239 0.4284-0.26947 0.2073-0.54931 0.4077-0.80841 0.6288-0.99497 0.8222-1.6272 1.9036-1.0779 3.1922 0.34548 0.7842 1.0537 1.3162 1.3163 2.1178 0.31784 0.9673-0.74277 1.4199-1.1573 2.1557-0.72204 1.2748-0.38002 2.9193 0.44221 4.0663 0.59076 0.8256 1.7032 1.7895 2.629 0.8775l-0.2729-0.0346c0.8291 1.299 2.0729 2.1489 3.6517 2.1592 0.0458 0 0.0897-0.0182 0.1221-0.0506s0.0506-0.0763 0.0506-0.1221c0-0.7911-0.4526-1.4717-0.5769-2.2421l-0.3144 0.1347c0.9604 1.7965 3.3269 2.4701 5.1821 2.7638 0.0292 0.0076 0.0598 0.0074 0.0889-4e-4 0.029-0.0079 0.0555-0.0233 0.0768-0.0446 0.0214-0.0213 0.0367-0.0478 0.0446-0.0769s0.0081-0.0597 5e-4 -0.0888c-0.0455-0.3073-0.1351-0.6063-0.2661-0.8879l-0.2383 0.2349c1.4026 0.7877 2.4977 2.4702 4.27 1.565 0.2419-0.1278 0.463-0.2902 0.691-0.4249 0.3904-0.2246 0.3144-0.1831 0.6253 0.0587 0.2708 0.2306 0.5778 0.4151 0.9086 0.5459 0.3997 0.1232 0.8204 0.1635 1.2363 0.1183 0.4158-0.0451 0.818-0.1748 1.182-0.3809 0.6033-0.3432 1.148-0.7805 1.6134-1.2955 0.2936-0.2902 0.5873-0.577 0.8982-0.8464 0.4768-0.4112 0.691-0.5874 1.1643 0 0.4733 0.5873 0.5873 1.0364 1.337 1.1884 0.6387 0.0858 1.2887 0.0244 1.9001-0.1797 1.3128-0.3834 3.0229-1.3335 2.9676-2.9089l-0.3455 0.045c0.1084 0.7808-0.0116 1.5763-0.3454 2.2905-0.0657 0.1796 0.1692 0.2591 0.2902 0.1658 1.3819-1.0779 2.5357-2.1212 3.1438-3.8002l-0.3144 0.0414c0.3215 0.7863 0.4114 1.6482 0.2591 2.484-0.0276 0.2176 0.304 0.3144 0.3455 0.0933 0.1699-0.9307 0.0667-1.8906-0.2971-2.7638-0.0657-0.1451-0.2695-0.083-0.3144 0.0414-0.5942 1.6376-1.7274 2.6153-3.0575 3.6586l0.2902 0.1658c0.349-0.7735 0.462-1.6327 0.3248-2.4701-6e-3 -0.0458-0.0299-0.0874-0.0665-0.1156s-0.0829-0.0407-0.1287-0.0347c-0.0458 0.0059-0.0874 0.0299-0.1156 0.0665s-0.0407 0.0829-0.0347 0.1287c0.0553 1.527-1.8172 2.3872-3.0713 2.6671-0.5769 0.1278-1.4268 0.266-1.9312-0.1451-0.4284-0.3455-0.5631-1.2058-1.1159-1.4096-0.7186-0.2591-1.7619 1.1194-2.1834 1.5305-1.3266 1.3059-3.2302 2.2283-4.6639 0.4905-0.027-0.0274-0.0624-0.045-0.1006-0.05s-0.0769 0.0029-0.1101 0.0224c-0.9812 0.691-1.9243 1.337-3.0851 0.6391-0.7082-0.4249-1.2714-1.0364-1.9969-1.4579-0.0328-0.0198-0.0713-0.028-0.1094-0.0235s-0.0736 0.0216-0.1009 0.0485-0.0449 0.0621-0.05 0.1002c-0.0051 0.038 0.0027 0.0766 0.022 0.1098 0.1163 0.2557 0.1954 0.5267 0.2349 0.8049l0.2107-0.2107c-1.7861-0.2868-4.0697-0.8948-4.9886-2.6118-0.1002-0.1831-0.3455-0.0484-0.3144 0.1347 0.0897 0.4224 0.2157 0.8362 0.3766 1.2368 0.0587 0.1728 0.2141 0.4353 0.1243 0.6115s-0.4698 0.0864-0.7186 0.0207c-1.0093-0.3003-1.8665-0.9735-2.3976-1.8828-0.0138-0.0225-0.0324-0.0417-0.0546-0.056-0.0222-0.0144-0.0473-0.0235-0.0735-0.0268-0.0262-0.0034-0.0529-7e-4 -0.0779 0.0076-0.0251 0.0084-0.0479 0.0223-0.0669 0.0406-0.76004 0.7532-1.7377-0.3212-2.1661-0.95-0.47277-0.6956-0.71452-1.5224-0.69095-2.3631 0.04837-0.9569 0.54931-1.5097 1.1642-2.1557 0.15594-0.1338 0.2784-0.3022 0.35759-0.4917 0.07918-0.1896 0.1129-0.3951 0.09844-0.6-0.10364-1.4026-1.7274-2.1109-1.5926-3.6171 0.12783-1.3474 1.6652-2.0729 2.5842-2.8744 0.02221-0.0214 0.03814-0.0485 0.04605-0.0784 0.00793-0.0298 0.00753-0.0613-0.00114-0.0909-0.34547-0.8775-1.337-1.1124-1.4959-2.1488-0.11112-0.6679 5.7e-4 -1.3538 0.31783-1.952 0.2902-0.5009 0.78423-0.7462 1.2713-1.0364 0.6495-0.3697 1.109-0.7635 1.2161-1.5408 0.1796-1.2817-0.3213-2.4702 0.19-3.7311 0.919-2.2456 3.3684-4.0801 5.4792-5.158 2.4184-1.2333 5.1096-1.5857 7.787-1.6514 2.5531-0.06218 5.0336 0.08637 7.3967 1.1401 1.0813 0.49157 2.1064 1.0985 3.0574 1.8103 1.1194 0.82569 2.2974 1.7066 3.0333 2.9089 0.6781 1.1443 0.9655 2.4782 0.8188 3.8002-0.1002 1.0606-0.2522 2.1074 0.4214 3.0126 0.729 0.9811 2.028 1.6306 2.0142 3.0125 0 1.0364-0.6599 1.9865-0.3144 3.0436 0.2006 0.4437 0.4315 0.8731 0.6909 1.2852 0.3248 0.691-0.0552 1.2161-0.0414 1.8967 0.0207 0.9915 0.836 1.6997 1.0986 2.6152 0.4629 1.6099-0.2937 3.4548-1.2783 4.6916-0.3635 0.4892-0.8074 0.9133-1.3128 1.254-0.2793 0.1227-0.5371 0.2895-0.7635 0.4941-0.1554 0.1831 0.0864 0.4318 0.2246 0.2522z" fill="#000"/>
<path d="m12.555 45.023c1.0718 0.3462 2.1709 0.6016 3.2855 0.7635 0.1071-1.1055 0.1969-2.2111 0.2073-3.3166-1.3401 0.5798-2.5335 1.4522-3.4928 2.5531z" fill="#FFDDCF"/>
<path d="m15.841 45.963h-0.0276c-1.1244-0.1617-2.2328-0.4194-3.3131-0.7704-0.0269-0.0086-0.0512-0.0239-0.0705-0.0444-0.0194-0.0206-0.0332-0.0457-0.0401-0.0731-0.0075-0.0252-0.0089-0.0518-0.0041-0.0776s0.0157-0.0502 0.0318-0.071c0.977-1.1172 2.1901-2.0034 3.5514-2.5945 0.0265-0.0122 0.0557-0.0176 0.0848-0.0155 0.0291 2e-3 0.0572 0.0114 0.0817 0.0273s0.0446 0.0377 0.0584 0.0634c0.0138 0.0258 0.0208 0.0546 0.0204 0.0837 0 1.2196-0.1174 2.4184-0.2107 3.3304-0.0017 0.0232-0.0084 0.0457-0.0198 0.066-0.0113 0.0203-0.027 0.0379-0.0459 0.0515-0.029 0.0178-0.0627 0.0262-0.0967 0.0242zm-2.9849-1.0365c0.9267 0.2821 1.8722 0.498 2.8295 0.6461 0.0794-0.805 0.1623-1.8069 0.1865-2.8398-1.1406 0.5244-2.1658 1.2701-3.016 2.1937z" fill="#000"/>
<path d="m40.076 50.824c-0.4797-1.9731-1.345-3.8318-2.5462-5.4689-1.1158 0.1693-2.2732 0.3213-3.4547 0.4491-0.1106-1.0951-0.1969-2.1903-0.2108-3.2855-0.532-0.2522-1.064-0.4802-1.5891-0.7186 0 1.3025 0.076 2.7639 0.1554 4.1665-5.2374 0.4733-10.71 0.5113-14.959 0.038l-0.425-0.0415-0.3869-0.0483-0.8188-0.1175 0.8188 0.1175 0.3869 0.0483 0.4319 0.0519c0.0794-1.451 0.1589-2.9228 0.1589-4.2494-0.5251 0.2384-1.0572 0.4629-1.5892 0.7151 0 1.1056-0.1002 2.2111-0.2073 3.3166-1.1146-0.1619-2.2137-0.4173-3.2855-0.7635-0.7704 0.9017-1.9657 2.6291-2.8156 5.8005l30.336-0.0103zm-7.6212-4.8609c0.5493-0.0483 1.0952-0.1036 1.6376-0.1623-0.5563 0.0621-1.1021 0.1174-1.6376 0.1623z" fill="#FB80BA"/>
<path d="m9.7396 50.996h-0.04492c-0.02195-0.0056-0.04256-0.0155-0.0606-0.0293-0.01804-0.0137-0.03315-0.0308-0.04443-0.0505-0.01127-0.0197-0.01849-0.0414-0.02122-0.0639s-9.1e-4 -0.0453 0.00534-0.067c0.6529-2.4426 1.6134-4.4187 2.8502-5.8731l0.076-0.0898 0.1105 0.038c1.0027 0.3287 2.0312 0.5725 3.0748 0.7289 0.0863-0.8775 0.1796-1.9899 0.19-3.1093v-0.1105l0.0967-0.0449c0.3455-0.1589 0.6909-0.311 1.0157-0.4595l0.5735-0.2557 0.2418-0.1105v0.266c0 1.2403-0.0656 2.5911-0.152 4.0939 4.0697 0.4387 9.3693 0.4249 14.6-0.038-0.0829-1.4614-0.1486-2.7638-0.1486-4.0075v-0.2695l0.7117 0.3178c0.3731 0.1659 0.7497 0.3455 1.1228 0.5113l0.0967 0.0484v0.0864c0 0.8982 0.0726 1.8586 0.19 3.1092 1.0814-0.1209 2.1385-0.2591 3.1508-0.4111l0.0345-0.0656h0.1175c0.039 0.0216 0.0731 0.051 0.1002 0.0864l0.1624 0.228c1.131 1.6095 1.9512 3.4163 2.4183 5.3272 0.0095 0.0444 0.0015 0.0907-0.0224 0.1293-0.0238 0.0386-0.0616 0.0665-0.1054 0.078-0.0223 0.0051-0.0453 0.0057-0.0678 0.0019-0.0225-0.0039-0.044-0.0122-0.0632-0.0244-0.0193-0.0122-0.036-0.0281-0.0491-0.0467-0.0131-0.0187-0.0223-0.0398-0.0272-0.0621-0.4735-1.9127-1.3059-3.7181-2.4529-5.3203-1.0779 0.1624-2.2041 0.3075-3.358 0.4353l-1.4787 0.1485h-0.1658c-5.2996 0.4768-10.686 0.4975-14.814 0.0553h-0.1831l-0.3074-0.0345-0.5148-0.0622h-0.1071l-0.5355-0.076-0.1796-0.0277c-1.0856-0.1571-2.1566-0.4021-3.2026-0.7324-1.1642 1.4027-2.0728 3.3028-2.705 5.6451-0.01053 0.0272-0.02778 0.0513-0.05013 0.07s-0.04908 0.0315-0.07769 0.0371zm6.9441-5.2616l0.4906 0.0587h0.1416c0.076-1.3819 0.1382-2.6359 0.1451-3.8002l-0.3455 0.1451c-0.304 0.1348-0.6046 0.2695-0.9086 0.4111-0.0173 1.1125-0.1105 2.2007-0.1934 3.0609l0.6702 0.1244zm15.771-3.6655c0 1.1401 0.0726 2.3631 0.1451 3.7104 0.4353-0.0414 0.8637-0.0829 1.2921-0.1313-0.1175-1.1988-0.1762-2.1419-0.1935-3.0194-0.3455-0.1589-0.6909-0.3109-1.0191-0.4629l-0.2246-0.0968z" fill="#000"/>
<path d="m37.53 45.355c-0.9683-1.2339-2.2245-2.2114-3.6586-2.8467 0 1.0951 0.1002 2.1903 0.2108 3.2854 1.1746-0.1174 2.3319-0.2694 3.4478-0.4387z" fill="#FFDDCF"/>
<path d="m34.082 45.963c-0.0432 1e-3 -0.0852-0.0145-0.1173-0.0434s-0.0519-0.069-0.0554-0.112c-0.1348-1.3336-0.2004-2.3493-0.2108-3.2993-3e-4 -0.0292 0.0067-0.058 0.0205-0.0837 0.0137-0.0258 0.0338-0.0476 0.0583-0.0635 0.0245-0.0158 0.0526-0.0252 0.0817-0.0273 0.0292-0.0021 0.0583 0.0033 0.0848 0.0156 1.4567 0.6458 2.7347 1.6357 3.7242 2.8847 0.0184 0.0238 0.0303 0.0519 0.0344 0.0817 0.0042 0.0298 5e-4 0.0601-0.0107 0.088-0.0111 0.028-0.0294 0.0525-0.0529 0.0712-0.0236 0.0187-0.0516 0.0309-0.0813 0.0354-1.1055 0.1693-2.2698 0.3213-3.4548 0.4526h-0.0207zm-0.0346-3.1783c0.0208 0.8187 0.0795 1.7066 0.1866 2.8156 1.0192-0.114 2.0176-0.2419 2.9745-0.387-0.8687-1.0218-1.9467-1.8453-3.1611-2.4148v-0.0138z" fill="#000"/>
<path d="m29.908 40.48c-3.0817-2.294-2.256-6.761-2.256-6.761l-5.1614-0.0656-0.3282 0.0656s0.8257 4.467-2.2525 6.761c-0.7091 0.5064-1.4713 0.9339-2.2732 1.2748 0 1.3266-0.0795 2.7983-0.1589 4.2493 4.2424 0.4733 9.7251 0.4353 14.959-0.038-0.0794-1.4199-0.1554-2.864-0.1554-4.1664-0.8382-0.3494-1.6344-0.7921-2.3734-1.3197z" fill="#FFDDCF"/>
<path d="m24.291 46.512c-2.2824 0.0085-4.5635-0.1068-6.8335-0.3454-0.0439-0.0053-0.0842-0.0272-0.1125-0.0612-0.0283-0.0341-0.0424-0.0778-0.0395-0.1219 0.0864-1.5651 0.159-2.9642 0.159-4.239-2e-4 -0.0329 0.0091-0.065 0.0269-0.0926 0.0178-0.0277 0.0433-0.0495 0.0732-0.0629 0.7906-0.337 1.5424-0.7586 2.2422-1.2575 2.9572-2.2042 2.1937-6.564 2.1868-6.5917-8e-3 -0.0449 0.0019-0.0911 0.0278-0.1286 0.0259-0.0376 0.0656-0.0634 0.1104-0.0718l0.3455-0.0656h0.0345l5.1614 0.0622c0.0252 0 0.05 0.0055 0.0727 0.0163 0.0227 0.0107 0.0427 0.0264 0.0586 0.0459 0.0156 0.0198 0.027 0.0426 0.0335 0.0669 0.0066 0.0243 0.0081 0.0498 0.0045 0.0747 0 0.0415-0.7704 4.3875 2.1869 6.5917 0.7296 0.5203 1.5153 0.9571 2.3423 1.3024 0.0312 0.0181 0.056 0.0454 0.0708 0.0783 0.0149 0.0328 0.0191 0.0695 0.0121 0.1048 0 1.2679 0.0726 2.6291 0.1555 4.1457 0.0019 0.0223-7e-4 0.0447-0.0075 0.0659-0.0068 0.0213-0.0177 0.041-0.0322 0.058-0.0144 0.017-0.0321 0.031-0.052 0.0412-0.0198 0.0102-0.0415 0.0163-0.0638 0.018-2.7638 0.2419-5.5276 0.3662-8.1636 0.3662zm-6.6331-0.6633c4.0663 0.4388 9.3658 0.425 14.6-0.038-0.0795-1.4199-0.1451-2.6981-0.1486-3.8969-0.8135-0.3456-1.5863-0.7801-2.3043-1.2956-2.7638-2.0486-2.4667-5.8178-2.3492-6.7298l-4.9507-0.0588-0.1451 0.0277c0.1106 0.8498 0.4388 4.6846-2.3457 6.7609-0.6878 0.4937-1.4268 0.9118-2.2042 1.2472-0.0034 1.2092-0.0691 2.5254-0.152 3.9833z" fill="#000"/>
<path d="m37.381 25.504c-0.0898-0.8844-0.4353-1.6272-1.4717-1.3888-0.2314 0.0726-0.4462 0.19-0.6323 0.3455 0.1313-0.7221 0.235-1.4579 0.3041-2.2042 0.6736-7.3137-1.147-14.741-10.565-14.741h-0.2176c-9.4177 0-11.228 7.4277-10.565 14.731 0.0691 0.7462 0.1693 1.4809 0.3006 2.2041-0.1856-0.1561-0.4006-0.2736-0.6322-0.3455-1.0364-0.2383-1.3819 0.5044-1.4648 1.3819-0.1382 1.5961 0.9258 3.0886 2.4598 3.8659 0.4323 0.1836 0.8902 0.3001 1.3577 0.3455 1.7274 3.3925 4.5913 5.6692 8.6369 5.4619 4.0593 0.2073 6.9095-2.0728 8.6368-5.4619 0.4665-0.0453 0.9232-0.1618 1.3543-0.3455 1.5684-0.7601 2.6325-2.2525 2.4978-3.8486z" fill="#FFDDCF"/>
<path d="m24.381 35.353c-3.5134 0-6.3567-1.8863-8.2395-5.4861-0.4543-0.051-0.8988-0.1674-1.3197-0.3455-1.6894-0.8568-2.6948-2.4391-2.5566-4.0352 0.0553-0.6702 0.2591-1.1366 0.6012-1.3819 0.1571-0.1021 0.3347-0.1687 0.5203-0.1949 0.1857-0.0263 0.3748-0.0116 0.5541 0.0429 0.121 0.0314 0.2372 0.079 0.3455 0.1417-0.1002-0.6081-0.1797-1.223-0.235-1.8276-0.4767-5.379 0.4388-9.3831 2.7535-11.908 1.831-2.0003 4.5153-3.016 7.9943-3.016h0.2176c3.479 0 6.1702 1.0157 7.9978 3.016 2.3077 2.5254 3.2405 6.5295 2.7396 11.905-0.0553 0.608-0.1347 1.2195-0.2349 1.8275 0.1085-0.0621 0.2246-0.1097 0.3454-0.1416 0.1793-0.0548 0.3685-0.0696 0.5541-0.0433 0.1857 0.0262 0.3633 0.0929 0.5204 0.1953 0.3454 0.2522 0.5458 0.7186 0.6045 1.3819 0.1348 1.5961-0.8671 3.1784-2.5565 4.0351-0.4222 0.1781-0.8678 0.2944-1.3231 0.3455-1.9623 3.776-5.0094 5.6727-8.7647 5.4758-0.1728 0.0104-0.3455 0.0138-0.5183 0.0138zm-10.841-11.11c-0.1672-0.0045-0.3316 0.0438-0.4698 0.1382-0.1509 0.1476-0.2699 0.3247-0.3495 0.5202-0.0797 0.1956-0.1183 0.4054-0.1134 0.6164-0.1244 1.4545 0.8084 2.9089 2.3699 3.7001 0.4139 0.1691 0.8504 0.2762 1.2955 0.3178 0.0285 0.0032 0.0557 0.0134 0.0792 0.0297 0.0235 0.0162 0.0426 0.0381 0.0556 0.0636 1.3266 2.5772 3.8762 5.6036 8.4918 5.3652 4.6293 0.2384 7.1824-2.788 8.509-5.3652 0.013-0.0255 0.0321-0.0474 0.0556-0.0636 0.0235-0.0163 0.0507-0.0265 0.0791-0.0297 0.4452-0.0416 0.8817-0.1487 1.2956-0.3178 1.565-0.7912 2.4943-2.2456 2.3699-3.7001 0.0049-0.211-0.0337-0.4208-0.1134-0.6164-0.0796-0.1955-0.1986-0.3726-0.3495-0.5202-0.1169-0.0727-0.2483-0.119-0.3849-0.1357s-0.2753-0.0034-0.4062 0.039c-0.2075 0.0646-0.4009 0.1677-0.5701 0.304-0.0282 0.0202-0.062 0.0311-0.0967 0.0311s-0.0685-0.0109-0.0967-0.0311c-0.0293-0.019-0.0524-0.0461-0.0665-0.078s-0.0186-0.0672-0.013-0.1016c0.1313-0.7221 0.2315-1.458 0.3006-2.1869 0.4698-5.1994-0.4457-9.2242-2.6533-11.642-1.7585-1.9278-4.3633-2.8916-7.7421-2.8916h-0.2176c-3.3788 0-5.9802 0.97769-7.7387 2.902-2.211 2.4183-3.1092 6.4431-2.6532 11.642 0.0656 0.7255 0.1658 1.4613 0.2971 2.1868 0.0071 0.0345 0.0032 0.0703-0.011 0.1025-0.0143 0.0322-0.0382 0.0592-0.0685 0.0772-0.0282 0.0202-0.062 0.0311-0.0967 0.0311s-0.0685-0.0109-0.0967-0.0311c-0.1674-0.1371-0.3599-0.2403-0.5666-0.3041-0.1059-0.0298-0.2149-0.0472-0.3248-0.0518z" fill="#000"/>
<path d="m17.053 18.221c0.2015-0.3538 0.4634-0.6695 0.7739-0.9328 0.3213-0.2666 0.6941-0.4642 1.0951-0.5804 0.3886-0.1046 0.7896-0.1557 1.1919-0.152 0.4044-0.0076 0.8065 0.0615 1.185 0.2038-0.3869 0.1313-0.7497 0.235-1.1193 0.3455-0.3697 0.1106-0.729 0.1831-1.0676 0.2799-0.3406 0.0976-0.6732 0.2212-0.9949 0.3696-0.3351 0.152-0.6772 0.3317-1.0641 0.4664z" fill="#000"/>
<path d="m27.476 28.655c-2.94 3.5618-5.0716 0-5.0716 0h5.0716z" fill="#FF7070"/>
<path d="m24.854 30.417h-0.1762c-1.482-0.1105-2.3872-1.596-2.4183-1.6617-0.0151-0.0262-0.0231-0.056-0.0231-0.0864 0-0.0303 8e-3 -0.0601 0.0231-0.0863 0.0142-0.0269 0.0357-0.0492 0.0619-0.0645 0.0263-0.0152 0.0563-0.0228 0.0867-0.0219h5.0681c0.0324-1e-4 0.0641 9e-3 0.0916 0.0261s0.0496 0.0416 0.0639 0.0706c0.014 0.03 0.0196 0.0633 0.0159 0.0962-0.0037 0.033-0.0163 0.0642-0.0367 0.0904-0.9017 1.0779-1.8275 1.6375-2.7569 1.6375zm-2.1177-1.5891c0.3178 0.4076 1.0364 1.1608 1.9726 1.2299 0.7843 0.0621 1.5892-0.3455 2.3873-1.2299h-4.3599z" fill="#000"/>
<path d="m20.674 25.991c0 0.7324-0.9293 1.3266-2.0729 1.3266-1.1435 0-2.0728-0.5942-2.0728-1.3266s0.9293-1.3301 2.0728-1.3301c1.1436 0 2.0729 0.5942 2.0729 1.3301z" fill="#FF7070" opacity=".25"/>
<path d="m32.766 18.221c-0.3869-0.1348-0.7289-0.3144-1.0675-0.4664-0.3215-0.149-0.6541-0.2726-0.9949-0.3697-0.3455-0.0967-0.691-0.1831-1.0676-0.2798-0.3765-0.0967-0.7324-0.2038-1.1158-0.3455 0.3748-0.1372 0.7721-0.2028 1.1711-0.1934 0.4035-4e-3 0.8057 0.0471 1.1954 0.152 0.4031 0.1136 0.7791 0.3075 1.1055 0.57 0.3105 0.2633 0.5724 0.579 0.7738 0.9328z" fill="#000"/>
<path d="m29.145 25.991c0 0.7324 0.9258 1.3266 2.0728 1.3266s2.0729-0.5942 2.0729-1.3266-0.9259-1.3301-2.0729-1.3301-2.0728 0.5942-2.0728 1.3301z" fill="#FF7070" opacity=".25"/>
<path d="m13.626 25.891c0.2653 0.045 0.5122 0.1649 0.7117 0.3454 0.2023 0.174 0.3822 0.3724 0.5355 0.5908 0.1486 0.2208 0.2704 0.4586 0.3627 0.7082 0.0899 0.244 0.1649 0.4932 0.2246 0.7463-0.1802-0.1901-0.3368-0.4012-0.4664-0.6288-0.1382-0.2177-0.2591-0.4284-0.4077-0.6288-0.1485-0.2003-0.2867-0.4042-0.4387-0.6011-0.1546-0.1953-0.3295-0.3736-0.5217-0.532z" fill="#000"/>
<path d="m36.193 25.891c-0.1938 0.1618-0.3688 0.3449-0.5216 0.5458-0.152 0.1969-0.3041 0.3973-0.4422 0.6011-0.1382 0.2039-0.2661 0.4112-0.4042 0.6288-0.1309 0.2277-0.2887 0.4388-0.4699 0.6288 0.0609-0.2531 0.137-0.5023 0.228-0.7463 0.0841-0.25 0.2002-0.488 0.3455-0.7082 0.153-0.2175 0.3317-0.4158 0.532-0.5907 0.2034-0.1894 0.4582-0.3144 0.7324-0.3593z" fill="#000"/>
<path d="m20.232 23.054c-0.1265 0.1269-0.2878 0.2133-0.4634 0.2485-0.1757 0.0351-0.3578 0.0173-0.5233-0.0511-0.1656-0.0684-0.3071-0.1845-0.4067-0.3334-0.0995-0.1489-0.1527-0.324-0.1527-0.5031s0.0532-0.3542 0.1527-0.5031c0.0996-0.1489 0.2411-0.265 0.4067-0.3334 0.1655-0.0684 0.3476-0.0862 0.5233-0.0511 0.1756 0.0352 0.3369 0.1216 0.4634 0.2485 0.1692 0.1696 0.2642 0.3995 0.2642 0.6391s-0.095 0.4695-0.2642 0.6391z" fill="#000"/>
<path d="m29.594 23.054c0.1265 0.1269 0.2877 0.2133 0.4634 0.2485 0.1756 0.0351 0.3578 0.0173 0.5233-0.0511s0.3071-0.1845 0.4066-0.3334c0.0996-0.1489 0.1528-0.324 0.1528-0.5031s-0.0532-0.3542-0.1528-0.5031c-0.0995-0.1489-0.2411-0.265-0.4066-0.3334s-0.3477-0.0862-0.5233-0.0511c-0.1757 0.0352-0.3369 0.1216-0.4634 0.2485-0.1692 0.1696-0.2642 0.3995-0.2642 0.6391s0.095 0.4695 0.2642 0.6391z" fill="#000"/>
<path d="m24.274 24.495c0.2167-0.2038 0.4653-0.3706 0.7359-0.494 0.0775-0.032 0.1588-0.0541 0.2418-0.0657 0.0494-5e-3 0.0992-5e-3 0.1486 0l0.1347 0.0415c0.0863 0.0395 0.1628 0.0973 0.2243 0.1696 0.0615 0.0722 0.1064 0.157 0.1316 0.2484 0.0702 0.3095 0.0473 0.6328-0.0657 0.9293-0.0915 0.2818-0.2305 0.5459-0.4111 0.7808 0.0484-0.2902 0.1071-0.5666 0.1486-0.8429 0.0503-0.252 0.0503-0.5115 0-0.7635-0.0099-0.0472-0.0302-0.0916-0.0595-0.1299s-0.0668-0.0694-0.1098-0.0912l-0.0657-0.0311c-0.0206-0.0026-0.0415-0.0026-0.0621 0-0.0616 0.0036-0.1228 0.0117-0.1831 0.0241-0.2522 0.045-0.5217 0.1555-0.8085 0.2246z" fill="#000"/>
<path d="m14.393 24.402s1.9001-3.8728 1.5822-6.9095c0 0 15.298-0.3904 16.462-5.7902 0 0 0.8084 9.5524 2.8433 12.745 0 0 7.9459-16.797-10.088-18.01 0.0069 0.00345-16.666-1.2403-10.8 17.965z" fill="#FF9C83"/>
<path d="m14.683 24.544c0.8886-1.9047 1.399-3.9638 1.5028-6.063 0 0 0.0207-1.0365-0.2038-0.8085h0.076c0.1307-0.0335 0.266-0.0463 0.4007-0.038 0.5528-0.0241 1.1055-0.0621 1.6548-0.1036 3.6793-0.2764 7.5798-0.7635 10.965-2.3147 1.5132-0.6909 3.1093-1.7481 3.5273-3.4547l-0.3455-0.0449c0.1486 1.7446 0.3835 3.4893 0.6668 5.2201 0.4111 2.5254 0.8326 5.3998 2.2007 7.6004 0.1174 0.1866 0.418 0 0.3005-0.1762-1.3542-2.1834-1.7619-5.037-2.1695-7.5313-0.2799-1.6998-0.5044-3.4133-0.653-5.1269 0-0.1831-0.2902-0.2487-0.3455-0.0483-0.6045 2.6187-4.0109 3.6724-6.2669 4.2804-2.6933 0.6914-5.4466 1.1229-8.2223 1.2886-0.5977 0.0449-1.1953 0.0829-1.7965 0.1002-0.0458 0-0.0897 0.0182-0.1221 0.0506s-0.0506 0.0763-0.0506 0.1221c0.2004 2.3078-0.4837 4.7641-1.4164 6.8681-0.0899 0.2004 0.2072 0.3766 0.2971 0.1762v0.0034z" fill="#000"/>
<circle cx="25" cy="25" r="24.5" stroke="#D4D5DA"/>
</g>
</svg>
