<?xml version="1.0" encoding="UTF-8"?>
<svg fill="none" viewBox="0 0 50 50" xmlns="http://www.w3.org/2000/svg">
<mask id="a" x="0" y="0" width="50" height="50" style="mask-type:alpha" maskUnits="userSpaceOnUse">
<circle cx="25" cy="25" r="25" fill="#fff"/>
</mask>
<g mask="url(#a)">
<path d="m29.228 39.409c-1.9197-2.2397-1.3089-5.5751-1.3089-5.5751l-4.8285-0.0581-0.3232 0.0581s0.6464 3.4226-1.3833 5.6624c1.435 0.9372 4.2339 2.0684 7.8439-0.0873z" fill="#FFDDCF"/>
<path d="m25.133 40.805c-1.361-0.0076-2.6896-0.4156-3.8202-1.1732-0.0191-0.0128-0.0352-0.0295-0.0475-0.049-0.0122-0.0195-0.0203-0.0413-0.0236-0.0641-0.0037-0.0231-0.0021-0.0467 0.0046-0.0691 0.0067-0.0223 0.0184-0.0429 0.0342-0.0602 1.9392-2.1589 1.351-5.4942 1.3445-5.5265-0.0076-0.042 0.0018-0.0853 0.026-0.1204s0.0613-0.0592 0.1033-0.0671l0.3232-0.0582 4.8479 0.055c0.0235-1e-4 0.0467 0.0052 0.0679 0.0152 0.0213 0.0101 0.04 0.0247 0.0549 0.0429 0.0145 0.0186 0.0252 0.0399 0.0313 0.0627 0.0061 0.0227 0.0076 0.0465 0.0042 0.0699 0 0.0323-0.5785 3.2868 1.2702 5.4425 0.0158 0.0179 0.0275 0.039 0.0342 0.0619s0.0083 0.047 0.0045 0.0706c-0.0042 0.0228-0.0134 0.0445-0.0268 0.0634-0.0133 0.019-0.0307 0.0348-0.0507 0.0465-1.2522 0.795-2.6991 1.23-4.1821 1.2572zm-3.4873-1.3444c1.3607 0.8499 3.985 1.826 7.3365-0.0938-1.5643-1.9811-1.3477-4.641-1.2411-5.3747l-4.6507-0.0452-0.1228 0.0226c0.0969 0.6884 0.362 3.4743-1.3219 5.4911z" fill="#000"/>
<path d="m31.536 49.835v-8.7262c0.7401 0.362 1.5028 0.6464 2.2624 1.0342l1.2572 2.9378-2.3464 0.8662 3.8783 2.9346" fill="#62CEF9"/>
<path d="m31.374 49.835v-8.7262c0.0011-0.0279 0.0093-0.0551 0.0237-0.079 0.0145-0.0239 0.0348-0.0437 0.059-0.0576 0.0243-0.0139 0.0516-0.0214 0.0796-0.0218 0.0279-4e-4 0.0555 0.0063 0.0801 0.0194 0.4654 0.223 0.9373 0.4266 1.4059 0.6464 0.2747 0.1196 0.7143 0.2198 0.9114 0.4525 0.1383 0.239 0.2468 0.4941 0.3232 0.7595l0.9308 2.1783c0.0116 0.0215 0.0182 0.0453 0.0195 0.0696 0.0013 0.0244-0.0028 0.0488-0.0121 0.0713-0.0093 0.0226-0.0235 0.0428-0.0415 0.0593-0.0181 0.0164-0.0395 0.0286-0.0629 0.0357l-2.3463 0.8662 0.0387-0.2941 3.8783 2.9346c0.1649 0.126 0 0.404-0.1616 0.2811l-3.8783-2.9378c-0.0258-0.017-0.0464-0.041-0.0592-0.0691-0.0129-0.0282-0.0176-0.0594-0.0135-0.0901 4e-3 -0.0307 0.0166-0.0596 0.0364-0.0835 0.0197-0.0238 0.0457-0.0416 0.0751-0.0514l2.3464-0.8661-0.097 0.2391-0.8435-1.9747c-0.0905-0.3168-0.2208-0.6209-0.3878-0.9049-0.1584-0.2004-0.5753-0.2877-0.8177-0.3976-0.4719-0.21-0.9405-0.4169-1.4059-0.6463l0.2424-0.139v8.7424c0 0.0428-0.017 0.0839-0.0473 0.1142s-0.0714 0.0474-0.1143 0.0474c-0.0428 0-0.0839-0.0171-0.1143-0.0474-0.0303-0.0303-0.0473-0.0714-0.0473-0.1142v-0.0162z" fill="#000"/>
<path d="m31.416 49.835l1.2928-3.9041 2.3464-0.8662-1.2572-2.9378c1.8389 0.8985 4.4891 3.0703 5.6785 7.7081" fill="#62CEF9"/>
<path d="m36.506 49.008l-3.8783-2.9378c-0.0258-0.0171-0.0464-0.041-0.0592-0.0692-0.0129-0.0281-0.0176-0.0593-0.0135-0.09 4e-3 -0.0307 0.0166-0.0597 0.0363-0.0835 0.0198-0.0239 0.0458-0.0417 0.0752-0.0514l2.3464-0.8662-0.097 0.2392-1.2572-2.9411c-0.0154-0.0311-0.0206-0.0662-0.0148-0.1004 0.0057-0.0342 0.0221-0.0658 0.0468-0.0901 0.0247-0.0244 0.0565-0.0403 0.0908-0.0456 0.0343-0.0052 0.0693 5e-4 0.1002 0.0163 3.0639 1.5288 4.8964 4.5829 5.7528 7.8052 0.0058 0.0212 0.0073 0.0433 0.0044 0.0651-0.0028 0.0218-0.0099 0.0428-0.0208 0.0619-0.011 0.0191-0.0256 0.0358-0.043 0.0492s-0.0373 0.0232-0.0585 0.029c-0.0213 0.0057-0.0434 0.0072-0.0652 0.0044-0.0218-0.0029-0.0428-0.0099-0.0619-0.0209-0.019-0.011-0.0357-0.0256-0.0492-0.043-0.0134-0.0174-0.0232-0.0373-0.029-0.0585-0.837-3.1479-2.6114-6.1213-5.6073-7.6144l0.223-0.2198 1.2572 2.9378c0.0116 0.0215 0.0182 0.0453 0.0195 0.0697s-0.0028 0.0487-0.0121 0.0713c-0.0093 0.0225-0.0235 0.0428-0.0415 0.0592-0.0181 0.0164-0.0395 0.0287-0.0629 0.0358l-2.3464 0.8661 0.0388-0.2941 3.8783 2.9346c0.1649 0.1261 0 0.404-0.1616 0.2812h0.0097z" fill="#000"/>
<path d="m36.859 44.435h-0.3232v5.4037h0.3232v-5.4037z" fill="#000"/>
<path d="m19.099 49.835v-8.7262c-0.7402 0.362-1.5029 0.6464-2.2624 1.0342l-1.2572 2.9378 2.3464 0.8662-3.8783 2.9346" fill="#62CEF9"/>
<path d="m19.261 49.835v-8.7262c-0.0011-0.0279-0.0093-0.0551-0.0238-0.079-0.0144-0.0239-0.0347-0.0437-0.059-0.0576-0.0242-0.0139-0.0516-0.0214-0.0795-0.0218s-0.0555 0.0063-0.0801 0.0194c-0.4654 0.223-0.9373 0.4266-1.4059 0.6464-0.2747 0.1196-0.7143 0.2198-0.9114 0.4525-0.1383 0.239-0.2469 0.4941-0.3232 0.7595l-0.9179 2.1557c-0.0116 0.0214-0.0183 0.0452-0.0195 0.0696-0.0013 0.0244 0.0028 0.0487 0.0121 0.0713s0.0235 0.0428 0.0415 0.0592c0.0181 0.0165 0.0395 0.0287 0.0629 0.0358l2.3463 0.8662-0.0387-0.2941-3.8783 2.9345c-0.1649 0.1261 0 0.404 0.1616 0.2812l3.8783-2.9378c0.0258-0.017 0.0463-0.041 0.0592-0.0691 0.0129-0.0282 0.0176-0.0594 0.0135-0.0901-4e-3 -0.0307-0.0166-0.0596-0.0364-0.0835-0.0197-0.0238-0.0457-0.0417-0.0751-0.0514l-2.3464-0.8662 0.097 0.2392 0.8435-1.9747c0.0905-0.3168 0.2208-0.6209 0.3878-0.9049 0.1584-0.2004 0.5753-0.2877 0.8177-0.3976 0.4719-0.2101 0.9405-0.4169 1.4059-0.6464l-0.2424-0.1389v8.7423c0 0.0429 0.017 0.084 0.0473 0.1143s0.0714 0.0473 0.1143 0.0473c0.0428 0 0.0839-0.017 0.1143-0.0473 0.0303-0.0303 0.0473-0.0714 0.0473-0.1143l-0.0129 0.0065z" fill="#000"/>
<path d="m19.219 49.835l-1.2927-3.9041-2.3464-0.8662 1.2572-2.9378c-1.839 0.8985-4.4891 3.0703-5.6785 7.7081" fill="#62CEF9"/>
<path d="m14.129 49.008l3.8783-2.9378c0.0258-0.0171 0.0464-0.041 0.0592-0.0692 0.0129-0.0281 0.0176-0.0593 0.0135-0.09-4e-3 -0.0307-0.0166-0.0597-0.0364-0.0835-0.0197-0.0239-0.0457-0.0417-0.0751-0.0514l-2.3464-0.8662 0.097 0.2392 1.2572-2.9411c0.0154-0.0311 0.0206-0.0662 0.0148-0.1004-0.0057-0.0342-0.0221-0.0658-0.0468-0.0901-0.0247-0.0244-0.0565-0.0403-0.0908-0.0456-0.0343-0.0052-0.0694 5e-4 -0.1002 0.0163-3.0574 1.5287-4.8899 4.5829-5.7464 7.7955-0.0116 0.0428-0.0056 0.0885 0.0165 0.127s0.0586 0.0666 0.1015 0.0782c0.0428 0.0115 0.0885 0.0056 0.127-0.0165s0.0666-0.0586 0.0782-0.1015c0.8371-3.1479 2.6114-6.1213 5.6074-7.6144l-0.223-0.2198-1.254 2.9475c-0.0116 0.0215-0.0183 0.0453-0.0195 0.0697-0.0013 0.0243 0.0028 0.0487 0.0121 0.0713 0.0093 0.0225 0.0235 0.0428 0.0415 0.0592 0.0181 0.0164 0.0395 0.0287 0.0629 0.0358l2.3463 0.8661-0.0387-0.2941-3.8783 2.9346c-0.1649 0.1261 0 0.404 0.1616 0.2812h-0.0194z" fill="#000"/>
<path d="m14.1 44.435h-0.3232v5.4037h0.3232v-5.4037z" fill="#000"/>
<path d="m29.839 40.01c-0.2209-0.1821-0.4252-0.3833-0.6109-0.6012-3.61 2.1557-6.4089 1.0246-7.8277 0.0873-0.1802 0.2014-0.3769 0.3874-0.5882 0.5559 1.1473 0.9502 4.5085 3.0509 9.0268-0.042z" fill="#F2F6FE"/>
<path d="m25.124 41.804c-1.6142-0.0121-3.1743-0.5831-4.4148-1.616-0.0192-0.014-0.0346-0.0326-0.0448-0.054-0.0101-0.0215-0.0147-0.0451-0.0134-0.0688-3e-4 -0.024 0.0048-0.0478 0.0148-0.0696 0.0101-0.0218 0.0249-0.0411 0.0434-0.0565 0.2051-0.1663 0.3955-0.3501 0.5688-0.5494 0.026-0.0289 0.0616-0.0474 0.1002-0.0521 0.0386-0.0048 0.0776 0.0046 0.1099 0.0262 1.3283 0.8791 4.0916 2.0362 7.6564-0.0904 0.032-0.0205 0.0704-0.0286 0.1079-0.0226 0.0376 6e-3 0.0716 0.0255 0.0957 0.0549 0.18 0.2096 0.3779 0.4032 0.5914 0.5785 0.0196 0.0159 0.035 0.0362 0.0451 0.0592 0.0102 0.0231 0.0146 0.0482 0.0131 0.0733-1e-4 0.025-0.0063 0.0495-0.0181 0.0715-0.0119 0.022-0.029 0.0407-0.0498 0.0545-1.8034 1.2379-3.4258 1.6613-4.8058 1.6613zm-4.0561-1.755c1.2928 0.9987 4.376 2.6664 8.5064-0.0549-0.1325-0.1196-0.2585-0.2457-0.3781-0.3749-3.5551 2.0652-6.3507 0.9695-7.7566 0.0872-0.1228 0.1164-0.2457 0.2327-0.3717 0.3426z" fill="#000"/>
<path d="m31.532 49.835v-8.7779c-0.3232-0.168-0.6658-0.3458-0.989-0.5494-0.1745-0.1099-0.3458-0.2263-0.5139-0.3523l-0.1906-0.1487c-4.5247 3.093-7.8795 0.9922-9.0268 0.0421l-0.1357 0.1066c-0.2069 0.1551-0.417 0.2941-0.627 0.4234-0.3232 0.1874-0.6303 0.3555-0.9502 0.5106v8.7424" fill="#F2F6FE"/>
<path d="m31.532 49.997c-0.0429 0-0.084-0.0171-0.1143-0.0474s-0.0473-0.0714-0.0473-0.1142v-8.6745c-0.3458-0.1778-0.6464-0.3232-0.9146-0.5139-0.1875-0.1163-0.3588-0.2359-0.5236-0.3587l-0.1002-0.0776c-4.4051 2.9507-7.7049 1.0956-9.0235 0.0485l-0.0356 0.0291c-0.2004 0.1486-0.4104 0.2908-0.6464 0.4298-0.2359 0.139-0.5397 0.3232-0.8726 0.4751v8.6422c0 0.0428-0.017 0.0839-0.0473 0.1142s-0.0714 0.0474-0.1143 0.0474c-0.0428 0-0.084-0.0171-0.1143-0.0474s-0.0473-0.0714-0.0473-0.1142v-8.7262c3e-4 -0.0302 0.0089-0.0598 0.0249-0.0854 0.0159-0.0257 0.0386-0.0464 0.0656-0.0601 0.3652-0.1777 0.6626-0.3232 0.934-0.5041 0.2127-0.1274 0.4187-0.2655 0.6173-0.4137l0.0808-0.0647 0.0485-0.0387c0.0288-0.0234 0.0647-0.0361 0.1018-0.0361s0.073 0.0127 0.1018 0.0361c1.1958 0.9889 4.4439 2.9572 8.8361-0.0518 0.0282-0.0205 0.0621-0.0315 0.097-0.0315 0.0348 0 0.0687 0.011 0.0969 0.0315l0.1842 0.1455c0.1584 0.1163 0.3232 0.2294 0.5042 0.3458 0.313 0.1977 0.6367 0.3779 0.9696 0.5397 0.0268 0.0135 0.0493 0.0343 0.0647 0.0601 0.0155 0.0257 0.0233 0.0553 0.0226 0.0854v8.7746c-0.0015 0.0396-0.0174 0.0773-0.0449 0.1059-0.0274 0.0286-0.0643 0.0461-0.1038 0.0493z" fill="#000"/>
<path d="m37.007 26.148c-0.0711-0.8241-0.4105-1.5222-1.3736-1.2927-0.2164 0.0679-0.4174 0.1777-0.5915 0.3232 0.1229-0.6755 0.2198-1.3672 0.2812-2.062 0.6238-6.8355-1.073-13.781-9.8832-13.781h-0.2036c-8.807-0.01293-10.504 6.9324-9.8832 13.768 0.0614 0.6948 0.1583 1.3865 0.2811 2.0619-0.1736-0.146-0.3747-0.2559-0.5914-0.3232-0.9696-0.2262-1.2928 0.4719-1.3736 1.2928-0.126 1.4964 0.8694 2.8893 2.3044 3.6198 0.4044 0.1685 0.8312 0.2773 1.2669 0.3232 1.6354 3.1705 4.2985 5.3035 8.0992 5.1096 3.7975 0.1939 6.4639-1.9391 8.096-5.1096 0.4358-0.0456 0.8626-0.1544 1.2669-0.3232 1.4414-0.7175 2.4304-2.1105 2.3044-3.6069z" fill="#FFDDCF"/>
<path d="m25.802 35.363h-0.4848c-3.5067 0.1842-6.3475-1.5902-8.1929-5.1227-0.4255-0.045-0.8417-0.1539-1.2346-0.3231-1.5675-0.8177-2.508-2.2882-2.369-3.7814 0.0517-0.627 0.2424-1.0633 0.5623-1.2928 0.1464-0.0969 0.3125-0.1602 0.4863-0.1854 0.1738-0.0251 0.351-0.0115 0.5188 0.04 0.1133 0.0293 0.222 0.0739 0.3232 0.1325-0.0937-0.5688-0.168-1.1409-0.2197-1.7097-0.4557-5.0289 0.4072-8.7747 2.5661-11.15 1.7065-1.8713 4.2241-2.8183 7.4787-2.8183h0.2036c3.2707 0.0097 5.7722 0.95667 7.4722 2.8183 2.1654 2.3722 3.0283 6.1212 2.5856 11.147-0.0518 0.572-0.1261 1.1441-0.2198 1.7097 0.1012-0.0586 0.2099-0.1032 0.3232-0.1325 0.1679-0.0515 0.3451-0.0651 0.5188-0.04 0.1738 0.0251 0.3399 0.0885 0.4863 0.1854 0.3232 0.2327 0.5106 0.669 0.5624 1.2928 0.1292 1.4931-0.808 2.9733-2.3884 3.7749-0.3941 0.1691-0.8114 0.2781-1.2379 0.3232-1.7614 3.3676-4.4245 5.1323-7.7404 5.1323zm-0.4848-0.3232c4.3308 0.2197 6.7192-2.6114 7.9602-5.0225 0.0122-0.0238 0.03-0.0443 0.052-0.0595s0.0475-0.0247 0.0741-0.0277c0.4179-0.0363 0.8277-0.1366 1.2152-0.2974 1.4608-0.7401 2.3302-2.0975 2.2138-3.4581-0.0452-0.5236-0.1939-0.892-0.433-1.0633-0.1092-0.0685-0.2319-0.1124-0.3597-0.1286-0.1279-0.0162-0.2577-0.0043-0.3805 0.0349-0.1948 0.0602-0.3759 0.1579-0.5332 0.2876-0.0267 0.0181-0.0583 0.0277-0.0905 0.0277-0.0323 0-0.0638-0.0096-0.0905-0.0277-0.0281-0.0163-0.0503-0.0409-0.0637-0.0705-0.0133-0.0295-0.017-0.0625-0.0106-0.0943 0.1228-0.6755 0.2165-1.3639 0.2811-2.0491 0.4396-4.8479-0.4169-8.6292-2.4821-10.892-1.645-1.8001-4.0819-2.7116-7.2427-2.7116h-0.2036c-3.1609 0-5.5977 0.91145-7.2428 2.7148-2.0652 2.2623-2.9087 6.0243-2.4789 10.888 0.0614 0.6787 0.1552 1.3704 0.278 2.0491 0.0064 0.0318 0.0026 0.0648-0.0107 0.0943-0.0133 0.0296-0.0356 0.0542-0.0637 0.0705-0.0267 0.0181-0.0582 0.0277-0.0905 0.0277-0.0322 0-0.0637-0.0096-0.0904-0.0277-0.1574-0.1297-0.3385-0.2274-0.5333-0.2876-0.1228-0.0392-0.2526-0.0511-0.3804-0.0349-0.1279 0.0162-0.2506 0.0601-0.3597 0.1286-0.2392 0.1713-0.3879 0.5397-0.4331 1.0633-0.1164 1.3606 0.753 2.718 2.2171 3.4581 0.3863 0.1609 0.7951 0.2612 1.212 0.2974 0.0266 3e-3 0.052 0.0125 0.074 0.0277s0.0399 0.0357 0.052 0.0595c1.254 2.4014 3.6424 5.2228 7.957 5.0128l-0.0129 0.0097z" fill="#000"/>
<path d="m25.479 32.38h-0.2166c-0.357 0-0.6464 0.2894-0.6464 0.6464v1.8034c0 0.357 0.2894 0.6464 0.6464 0.6464h0.2166c0.357 0 0.6464-0.2894 0.6464-0.6464v-1.8034c0-0.357-0.2894-0.6464-0.6464-0.6464z" fill="#414F67"/>
<path d="m25.964 34.829c-0.1131 0.9696-1.0698 0.3232-1.1861-0.042-0.0259-0.205-0.0259-0.4124 0-0.6173-0.0453-0.3811-0.0453-0.7663 0-1.1474 0.0265-0.1401 0.1019-0.2662 0.2128-0.3558 0.1109-0.0897 0.25-0.137 0.3926-0.1335 0.1425 0.0035 0.2792 0.0576 0.3856 0.1525 0.1063 0.095 0.1755 0.2247 0.1951 0.3659 0.0178 0.1709 0.0178 0.3431 0 0.5139v1.2637c0 0.0428 0.017 0.0839 0.0473 0.1142 0.0303 0.0304 0.0714 0.0474 0.1143 0.0474 0.0428 0 0.0839-0.017 0.1142-0.0474 0.0303-0.0303 0.0474-0.0714 0.0474-0.1142v-1.1474c0.043-0.337 0.0155-0.6793-0.0808-1.0051-0.3846-0.8274-1.6742-0.5074-1.7517 0.3458-0.0323 0.3555 0 0.7304 0 1.086-0.0447 0.3503-0.0205 0.706 0.0711 1.0471 0.3813 0.8532 1.6612 0.53 1.7614-0.3232 0.0226-0.2101-0.3006-0.2101-0.3232-0.0032z" fill="#000"/>
<path d="m24.215 26.206c0.0752 0.1506 0.1904 0.2775 0.3329 0.367s0.3068 0.1381 0.4751 0.1405c0.3316 0.0381 0.6673-0.0167 0.9696-0.1584 0.1286-0.0585 0.2327-0.1603 0.2941-0.2876 0.0375-0.1341 0.0225-0.2775-0.0421-0.4008-0.029-0.0711-0.0678-0.1228-0.1098-0.2327-0.0421-0.1099-0.0582-0.1778-0.0873-0.265-0.0485-0.1713-0.0937-0.3458-0.1293-0.5171-0.1551-0.6809-0.2822-1.3682-0.3813-2.062-0.1148-0.6899-0.1892-1.386-0.2231-2.0846 0.0679 0.3426 0.1487 0.6819 0.2295 1.0213l0.2262 1.0213 0.459 2.0329 0.126 0.5009c0.0227 0.0744 0.0453 0.1681 0.0711 0.2295 0.0259 0.0614 0.0744 0.1519 0.1099 0.2424 0.0417 0.0987 0.0632 0.2047 0.0632 0.3119 0 0.1071-0.0215 0.2131-0.0632 0.3118-0.0929 0.1884-0.2533 0.3349-0.4492 0.4105-0.3502 0.1296-0.7294 0.1598-1.0956 0.0873-0.1789-0.028-0.3463-0.1055-0.4834-0.2238-0.1371-0.1182-0.2384-0.2724-0.2923-0.4453z" fill="#000"/>
<path d="m18.288 18.857c-0.1616 0.2166-0.0549 0.4299 0.2134 0.5107 0.4847 0.1357 0.9437-0.3749 1.3477-0.5365 0.2805-0.1043 0.5691-0.1854 0.8629-0.2424 0.2424-0.055 0.6464-0.0808 0.8338-0.2715 0.5656-0.5915-0.6722-0.6981-1.0245-0.6981-0.4151 7e-3 -0.8219 0.1181-1.1829 0.3232-0.2074 0.1097-0.4062 0.235-0.5947 0.3749-0.1137 0.1015-0.2216 0.2094-0.3231 0.3232l-0.1326 0.2165z" fill="#414F67"/>
<path d="m18.146 18.776c-0.0427 0.0633-0.0697 0.1359-0.0787 0.2118-0.0089 0.0759 5e-4 0.1528 0.0274 0.2244 0.0269 0.0715 0.0705 0.1355 0.1272 0.1867 0.0568 0.0512 0.125 0.0881 0.1989 0.1075 0.3878 0.1519 0.7724-0.1002 1.0891-0.2974 0.5882-0.3587 1.2152-0.3522 1.8325-0.5946 0.2327-0.0905 0.5236-0.2941 0.5107-0.5818-0.0259-0.5688-1.0439-0.5914-1.4382-0.5688-0.4525 0.0306-0.8919 0.1649-1.2842 0.3924-0.3922 0.2275-0.727 0.5422-0.9782 0.9198-0.1099 0.1745 0.1713 0.3232 0.2812 0.1616 0.2828-0.4179 0.6803-0.7452 1.1448-0.9424 0.4644-0.1973 0.976-0.2561 1.473-0.1694 0.0804 0.0055 0.1592 0.0252 0.2327 0.0582 0.2198 0.1777 0.0518 0.4007-0.1712 0.4621-0.2231 0.0614-0.5042 0.0937-0.7531 0.1584-0.2517 0.0578-0.4966 0.1423-0.7304 0.2521-0.097 0.0485-0.1875 0.1163-0.2844 0.1745-0.0323 0.0194-1.2443 0.7272-0.9179 0 0.0841-0.1745-0.1939-0.3458-0.2812-0.1551z" fill="#000"/>
<path d="m32.266 18.857c0.1616 0.2166 0.055 0.4299-0.2133 0.5107-0.4848 0.1357-0.9437-0.3749-1.3477-0.5365-0.2805-0.1043-0.5691-0.1854-0.8629-0.2424-0.278-0.0647-0.7078-0.0582-0.8888-0.3232-0.3523-0.543 0.7821-0.6464 1.0795-0.6464 0.4151 7e-3 0.8218 0.1181 1.1828 0.3232 0.2075 0.1097 0.4063 0.235 0.5947 0.3749 0.1138 0.1015 0.2217 0.2094 0.3232 0.3232l0.1325 0.2165z" fill="#414F67"/>
<path d="m32.14 18.938l-0.3911 0.2715-0.3232-0.139c-0.1422-0.0776-0.2682-0.1777-0.4072-0.2585-0.2179-0.1215-0.4503-0.2149-0.6916-0.278-0.2782-0.0327-0.5529-0.09-0.8209-0.1713-0.1649-0.0905-0.3232-0.3393-0.223-0.4654 0.0452-0.0517 0.2617-0.0775 0.3231-0.0872 0.4867-0.0707 0.9835-0.0022 1.433 0.1974 0.4494 0.1995 0.8333 0.5221 1.1073 0.9305 0.1099 0.1778 0.3911 0 0.2812-0.1616-0.2416-0.3584-0.5585-0.6598-0.9286-0.8831s-0.7844-0.3631-1.2142-0.4097c-0.4201-0.0484-1.464-0.0484-1.5351 0.543 0.0011 0.1268 0.041 0.2503 0.1144 0.3537s0.1767 0.1819 0.296 0.2248c0.5689 0.2715 1.2249 0.2101 1.797 0.543 0.3555 0.2036 0.7563 0.5332 1.1958 0.3652 0.0739-0.0194 0.1421-0.0563 0.1988-0.1075s0.1004-0.1152 0.1273-0.1867c0.0269-0.0716 0.0363-0.1485 0.0273-0.2244-0.0089-0.0759-0.0359-0.1485-0.0787-0.2118-0.0937-0.1972-0.3717-0.0259-0.2876 0.1551z" fill="#000"/>
<path d="m27.741 28.453c-0.1551 0.1551-0.3231 0.3038-0.4912 0.4524-0.1806 0.1349-0.372 0.2549-0.5721 0.3588-0.4073 0.215-0.8582 0.3343-1.3186 0.349-0.4578 0.0091-0.9111-0.0915-1.3221-0.2933-0.411-0.2019-0.7677-0.4991-1.0404-0.8669 0.3427 0.2638 0.7229 0.4751 1.1279 0.627 0.3914 0.1509 0.8089 0.2224 1.2282 0.21 0.1081-5e-4 0.216-0.0081 0.3231-0.0226l0.1552-0.0162 0.1519-0.0355c0.1034-0.0259 0.2068-0.042 0.307-0.0743 0.1002-0.0324 0.2004-0.0711 0.3006-0.1067 0.2036-0.0646 0.3878-0.1778 0.5882-0.2618s0.362-0.223 0.5623-0.3199z" fill="#000"/>
<path d="m14.781 26.514c0.2529 0.0395 0.4887 0.1518 0.6787 0.3232 0.1883 0.1628 0.3555 0.3485 0.4977 0.5527 0.1354 0.2062 0.244 0.4289 0.3232 0.6625 0.0873 0.2369 0.1607 0.4786 0.2198 0.724-0.1688-0.1772-0.3163-0.3736-0.4396-0.585-0.126-0.2068-0.2391-0.4007-0.3781-0.5882-0.139-0.1874-0.2682-0.3781-0.4137-0.5623-0.1393-0.1959-0.3034-0.373-0.488-0.5269z" fill="#000"/>
<path d="m35.896 26.514c-0.1828 0.1498-0.3467 0.3213-0.488 0.5107-0.1422 0.1842-0.2844 0.3684-0.4137 0.5623-0.1293 0.194-0.2521 0.3814-0.3782 0.585-0.1213 0.2186-0.2689 0.4216-0.4395 0.6044 0.0579-0.2365 0.1291-0.4696 0.2133-0.6981 0.0843-0.2345 0.1983-0.4571 0.3394-0.6625 0.1404-0.2134 0.3077-0.4078 0.4977-0.5786 0.1873-0.1697 0.4196-0.2819 0.669-0.3232z" fill="#000"/>
<path d="m20.954 23.86c-0.1183 0.1187-0.2692 0.1995-0.4335 0.2324-0.1644 0.0329-0.3347 0.0162-0.4896-0.0478s-0.2873-0.1725-0.3804-0.3118c-0.0932-0.1393-0.1429-0.3031-0.1429-0.4707s0.0497-0.3314 0.1429-0.4707c0.0931-0.1393 0.2255-0.2478 0.3804-0.3118 0.1549-0.0641 0.3252-0.0807 0.4896-0.0478 0.1643 0.0328 0.3152 0.1137 0.4335 0.2324 0.1583 0.1587 0.2472 0.3737 0.2472 0.5979s-0.0889 0.4392-0.2472 0.5979z" fill="#000"/>
<path d="m29.723 23.86c0.1183 0.1187 0.2692 0.1995 0.4335 0.2324s0.3347 0.0162 0.4896-0.0478 0.2872-0.1725 0.3804-0.3118c0.0931-0.1393 0.1429-0.3031 0.1429-0.4707s-0.0498-0.3314-0.1429-0.4707c-0.0932-0.1393-0.2255-0.2478-0.3804-0.3118-0.1549-0.0641-0.3253-0.0807-0.4896-0.0478-0.1643 0.0328-0.3152 0.1137-0.4335 0.2324-0.1583 0.1587-0.2472 0.3737-0.2472 0.5979s0.0889 0.4392 0.2472 0.5979z" fill="#000"/>
<path d="m37.308 9.6397c-0.0775-0.13574-0.1583-0.26825-0.2488-0.39753-0.8112-1.1764-1.9747-1.7614-3.3289-2.0426-1.608-0.34561-3.155-0.93064-4.5893-1.7356-0.6648-0.40241-1.3621-0.74836-2.0846-1.0342-2.0523-0.70779-5.6107-0.05171-6.3346 2.369-2.2624-0.06787-4.9933 1.4091-6.0793 2.9087-0.687 0.9542-1.176 2.0364-1.438 3.1826-0.262 1.1463-0.2917 2.3334-0.0874 3.4913 0.3232 1.7711 0.8176 3.4873 1.2119 5.2357 0.2554 1.1183 0.5074 3.232 1.4867 3.901 0.6852 0.9696 0.8985-6.7871 1.0924-8.4224 0.1747-1.2191 0.5389-2.4033 1.0795-3.5099 0.7595-1.7517 2.6986-2.7374 4.3889-2.7697h0.1261c0.0646 1.0309 0.2068 1.7484 1.0374 2.6889 1.2217 1.3833 2.9475 0.989 4.6992 0.8468-1.1893-0.2941-2.4239-0.2683-3.0606-1.5772 1.2443 1.5513 4.2952 2.062 6.5382 1.5319-0.6173-0.1357-2.1783-1.1311-2.7601-1.4576 2.0168-0.3587 5.1097 1.2152 5.3683 3.9365-0.0016 0.0129-0.0016 0.0259 0 0.0388v0.2165c0.0323 1.2928 0.0484 2.8054 0.1422 4.2888 0.0581 1.9004 0.1357 3.6876 0.3232 4.3566-0.0679-0.2585 1.0891-1.4511 1.2539-1.6773 1.2928-1.8196 1.49-4.6411 1.7194-6.7871 0.278-2.4886 0.8371-5.31-0.4557-7.5821z" fill="#414F67"/>
<path d="m37.437 9.5589c-0.5745-0.99207-1.4674-1.7609-2.5338-2.1816-0.6967-0.22797-1.4043-0.42105-2.1202-0.57852-0.9137-0.25658-1.8027-0.59404-2.6566-1.0084-1.2378-0.6076-2.3852-1.4608-3.7717-1.7-0.9699-0.16226-1.9639-0.10483-2.9087 0.16806-0.9237 0.23208-1.7499 0.75154-2.3593 1.4834-0.1487 0.19392-0.2392 0.41692-0.3717 0.6173-0.1939 0.29411-0.0937 0.223-0.4654 0.27795-0.6758 0.07222-1.3428 0.21189-1.9908 0.41692-1.2122 0.39547-2.3081 1.0837-3.1909 2.0036s-1.5252 2.0434-1.8703 3.2708c-0.9017 3.0542 0.2327 6.0631 0.9211 9.0494 0.2553 1.1054 0.3749 2.2818 0.8694 3.316 0.1389 0.2909 0.5849 1.1732 1.0277 1.0633 0.2974-0.0711 0.3588-0.6464 0.4008-0.892 0.1358-0.77 0.2297-1.5468 0.2811-2.327 0.1423-1.7032 0.194-3.4129 0.3491-5.1161 0.1271-1.544 0.6106-3.0375 1.4123-4.3631 0.4614-0.6864 1.1003-1.2349 1.8487-1.5869 0.3458-0.1681 1.8454-0.7628 2.0555-0.4331 0.1034 0.1584 0.084 0.6916 0.1325 0.892 0.0735 0.2869 0.1821 0.5637 0.3232 0.8242 0.301 0.5802 0.7462 1.0732 1.2928 1.4317 1.2281 0.7563 2.7794 0.4331 4.1304 0.3232 0.168-0.0162 0.2295-0.2747 0.042-0.3232-1.1635-0.2715-2.327-0.3232-2.9637-1.5028l-0.2553 0.1939c1.5546 1.8163 4.5247 2.0555 6.6966 1.5771 0.0373-0.0075 0.0709-0.0277 0.095-0.0571 0.0241-0.0295 0.0373-0.0664 0.0373-0.1045 0-0.038-0.0132-0.0749-0.0373-0.1044-0.0241-0.0294-0.0577-0.0496-0.095-0.0571-0.9696-0.2683-1.8487-0.947-2.7181-1.4447l-0.0388 0.2973c2.4337-0.3587 5.0321 1.5772 5.1711 4.0529 0.0905 1.5836 0.1067 3.1802 0.1584 4.767 0.042 1.2928 0 2.6664 0.3038 3.9301 0.0029 0.0212 0.0101 0.0416 0.0209 0.0601 0.0109 0.0185 0.0253 0.0346 0.0424 0.0475s0.0366 0.0223 0.0573 0.0277c0.0208 0.0054 0.0424 0.0066 0.0636 0.0036 0.0212-0.0029 0.0416-0.0101 0.0601-0.0209 0.0185-0.0109 0.0346-0.0253 0.0475-0.0424s0.0223-0.0366 0.0277-0.0573c0.0054-0.0208 0.0066-0.0424 0.0037-0.0636 0-0.4234 0.7142-0.9922 0.9695-1.2927 0.3407-0.3985 0.6226-0.8436 0.8371-1.3219 0.5947-1.3186 0.8177-2.773 0.9696-4.2015 0.3523-3.0057 1.199-6.5156-0.3232-9.3241-0.097-0.18422-0.3749-0.01939-0.278 0.1616 0.8533 1.5869 0.8727 3.3676 0.7111 5.1193-0.1455 1.5805-0.3232 3.1738-0.5365 4.7445-0.2036 1.4512-0.501 3.0542-1.3768 4.2694-0.362 0.5042-1.3219 1.1764-1.3316 1.8454l0.3232-0.042c-0.3943-1.6644-0.2779-3.5066-0.3555-5.2066-0.0646-1.4706 0.1778-3.1867-0.3232-4.6023-0.7304-2.0943-3.1996-3.484-5.3682-3.1673-0.1422 0.0226-0.1487 0.2327-0.0388 0.2974 0.8952 0.5106 1.7937 1.199 2.7988 1.477v-0.3232c-2.0813 0.4557-4.906 0.2359-6.383-1.49-0.1228-0.1454-0.3394 0.0388-0.2521 0.194 0.6787 1.2507 1.8874 1.3574 3.1544 1.6515l0.0452-0.3232c-1.1312 0.0969-2.4013 0.3652-3.4969-0.042-1.3995-0.5204-1.9812-1.9586-2.0782-3.3322-8e-4 -0.0426-0.0181-0.0832-0.0482-0.1133s-0.0708-0.0474-0.1134-0.0482c-1.1687-0.0113-2.3071 0.3712-3.2319 1.0859-1.1699 0.892-1.7161 2.2817-2.1428 3.6456-0.5882 1.8777-0.5203 3.9462-0.6463 5.8918-0.0711 1.018-0.139 2.0426-0.2877 3.0542-0.0202 0.3162-0.0833 0.6282-0.1874 0.9275-0.0227 0.0453-0.1164 0.2036-0.0259 0.1907-0.2068 0.0323-0.5947-0.7013-0.6464-0.8274-0.6464-1.2669-0.7562-2.8344-1.0891-4.2015-0.446-1.8066-1.0892-3.7199-1.0666-5.6235 0.0227-1.9586 0.7337-4.153 2.1525-5.5525 1.4524-1.4212 3.3946-2.2309 5.4264-2.2624 0.0352-7.2e-4 0.0693-0.01272 0.0973-0.03425 0.0279-0.02152 0.0482-0.05143 0.0578-0.08533 0.9696-2.9087 5.0386-2.9087 7.288-1.7258 1.5158 0.81445 2.996 1.5998 4.6702 2.049 1.7969 0.48156 3.3094 0.8597 4.334 2.5855 0.0252 0.03136 0.0613 0.05216 0.1011 0.05832 0.0398 0.00617 0.0804-0.00274 0.114-0.02498 0.0335-0.02224 0.0576-0.05621 0.0674-0.09526 0.0098-0.03904 0.0047-0.08035-0.0143-0.11583z" fill="#000"/>
<circle cx="25" cy="25" r="24.5" stroke="#D4D5DA"/>
</g>
</svg>
